<svg height="512" fill="#fff" viewBox="0 0 16 16" width="512" xmlns="http://www.w3.org/2000/svg"><path d="m13.5 3h-4.5v-1.5c0-.276367-.223633-.5-.5-.5h-5.5v-.5c0-.276367-.223633-.5-.5-.5s-.5.223633-.5.5v14.5h-2v1h5v-1h-2v-7h4.69092l-.638184 1.27637c-.0776367.154785-.069336.338867.0219726.486328s.251953.237305.425293.237305h6c.276367 0 .5-.223633.5-.5v-6c0-.276367-.223633-.5-.5-.5zm-10.5-1h5v5h-5zm10 7h-4.69092l.638184-1.27637-.0045166-.0022583c.0338745-.0674438.057251-.140686.057251-.221374v-3.5h4v5z" transform="translate(1)"/></svg>