<svg height="512" fill="#fff" viewBox="0 0 16 16" width="512" xmlns="http://www.w3.org/2000/svg">
    <path
        d="m13.5 0h-13c-.276367 0-.5.223633-.5.5v2.52295c0 1.10449.708984 2.06445 1.76465 2.38965l4.55975 1.40277-.809265 2.02899-3.09717.517639c-.185059.0308228-.336914.162537-.394043.341309-.0571289.179199-.0097656.375061.122559.507812l2.06787 2.07385-.52002 3.13062c-.0297852.178711.0390625.359375.179688.473023.090332.072937.201172.110657.313472.110657.0625043 0 .125493-.0117188.185551-.0357666l2.62549-1.05377 2.62842 1.05377c.168457.0686035.358887.0386963.499023-.0748901.140625-.113648.209473-.2948.179688-.473023l-.52002-3.13062 2.06787-2.07385c.132324-.132751.179688-.328613.122559-.507812-.0571289-.178772-.208984-.310486-.394043-.341309l-3.09717-.517639-.809265-2.02899 4.55975-1.40277c1.05566-.325195 1.76465-1.28516 1.76465-2.38965v-2.52295c0-.276367-.223633-.5-.5-.5zm-6.5 5.97705-2-.615417v-4.36163h4v4.36163l-2 .615418zm-6-2.9541v-2.02295h3v4.05396l-1.94141-.597412c-.633301-.194824-1.05859-.770996-1.05859-1.43359zm7.04297 6.7641 2.4165.403992-1.56299 1.5675c-.114258.114563-.166016.277161-.139648.436768l.416504 2.50629-1.98926-.79773c-.0595703-.0239868-.122559-.0357666-.185547-.0357666-.0629883 0-.125977.0117798-.185547.0357666l-1.98633.797241.416504-2.5058c.0263672-.159607-.0253906-.322205-.139648-.436768l-1.56299-1.5675 2.4165-.403992c.172363-.0289307.317383-.145935.382324-.308533l.660645-1.65662.660645 1.65662c.0649414.162598.209961.279602.382324.308533zm4.95703-6.7641c0 .662598-.425293 1.23877-1.05859 1.43359l-1.94141.597412v-4.05396h3v2.02295z"
        transform="translate(1)" /></svg>